<svg id="visual" viewBox="0 0 2200 1500" width="2200" height="1500" xmlns="http://www.w3.org/2000/svg" xmlns:xlink="http://www.w3.org/1999/xlink" version="1.1"><g stroke-width="1" stroke-linejoin="bevel"><path d="M1176.3 679.8L1319 704.8L1202.3 576.5Z" fill="#919ae7" stroke="#919ae7"></path><path d="M1319 704.8L1299 544.5L1202.3 576.5Z" fill="#8d96e8" stroke="#8d96e8"></path><path d="M1208.3 815.2L1354 780.2L1319 704.8Z" fill="#b9bde2" stroke="#b9bde2"></path><path d="M1319 704.8L1452.7 676.8L1299 544.5Z" fill="#a3a9e5" stroke="#a3a9e5"></path><path d="M1176.3 679.8L1208.3 815.2L1319 704.8Z" fill="#b5b9e3" stroke="#b5b9e3"></path><path d="M1354 780.2L1452.7 676.8L1319 704.8Z" fill="#9fa5e6" stroke="#9fa5e6"></path><path d="M1202.3 576.5L1033.7 653.8L1176.3 679.8Z" fill="#9fa5e6" stroke="#9fa5e6"></path><path d="M1176.3 679.8L1037.7 847.2L1208.3 815.2Z" fill="#acb1e4" stroke="#acb1e4"></path><path d="M1452.7 676.8L1455.7 529.5L1299 544.5Z" fill="#919ae7" stroke="#919ae7"></path><path d="M1299 383.1L1210.3 407.1L1299 544.5Z" fill="#b0b5e3" stroke="#b0b5e3"></path><path d="M1299 544.5L1210.3 407.1L1202.3 576.5Z" fill="#a7ade4" stroke="#a7ade4"></path><path d="M1202.3 576.5L995.7 578.5L1033.7 653.8Z" fill="#b0b5e3" stroke="#b0b5e3"></path><path d="M1439.7 439.1L1299 383.1L1299 544.5Z" fill="#8d96e8" stroke="#8d96e8"></path><path d="M1022.7 441.1L995.7 578.5L1202.3 576.5Z" fill="#b9bde2" stroke="#b9bde2"></path><path d="M1434.7 924.5L1447.7 843.2L1354 780.2Z" fill="#9fa5e6" stroke="#9fa5e6"></path><path d="M1354 780.2L1447.7 843.2L1452.7 676.8Z" fill="#acb1e4" stroke="#acb1e4"></path><path d="M1455.7 529.5L1439.7 439.1L1299 544.5Z" fill="#b9bde2" stroke="#b9bde2"></path><path d="M892 666.8L1037.7 847.2L1033.7 653.8Z" fill="#919ae7" stroke="#919ae7"></path><path d="M1033.7 653.8L1037.7 847.2L1176.3 679.8Z" fill="#b0b5e3" stroke="#b0b5e3"></path><path d="M1208.3 815.2L1351 975.5L1354 780.2Z" fill="#969ee7" stroke="#969ee7"></path><path d="M1169.3 265.7L1022.7 441.1L1210.3 407.1Z" fill="#8d96e8" stroke="#8d96e8"></path><path d="M1210.3 407.1L1022.7 441.1L1202.3 576.5Z" fill="#9aa1e6" stroke="#9aa1e6"></path><path d="M1037.7 847.2L1197.3 959.5L1208.3 815.2Z" fill="#969ee7" stroke="#969ee7"></path><path d="M1351 975.5L1434.7 924.5L1354 780.2Z" fill="#a7ade4" stroke="#a7ade4"></path><path d="M1197.3 959.5L1351 975.5L1208.3 815.2Z" fill="#919ae7" stroke="#919ae7"></path><path d="M863 506.5L892 666.8L995.7 578.5Z" fill="#a7ade4" stroke="#a7ade4"></path><path d="M995.7 578.5L892 666.8L1033.7 653.8Z" fill="#8d96e8" stroke="#8d96e8"></path><path d="M1650.3 803.2L1623.3 666.8L1452.7 676.8Z" fill="#acb1e4" stroke="#acb1e4"></path><path d="M1452.7 676.8L1626.3 576.5L1455.7 529.5Z" fill="#9aa1e6" stroke="#9aa1e6"></path><path d="M1455.7 529.5L1643.3 444.1L1439.7 439.1Z" fill="#a7ade4" stroke="#a7ade4"></path><path d="M1650.3 803.2L1452.7 676.8L1447.7 843.2Z" fill="#a7ade4" stroke="#a7ade4"></path><path d="M1454.7 246.7L1349 288.7L1439.7 439.1Z" fill="#acb1e4" stroke="#acb1e4"></path><path d="M1439.7 439.1L1349 288.7L1299 383.1Z" fill="#a3a9e5" stroke="#a3a9e5"></path><path d="M1299 383.1L1169.3 265.7L1210.3 407.1Z" fill="#9aa1e6" stroke="#9aa1e6"></path><path d="M1623.3 666.8L1626.3 576.5L1452.7 676.8Z" fill="#acb1e4" stroke="#acb1e4"></path><path d="M914 932.5L993.7 923.5L1037.7 847.2Z" fill="#b9bde2" stroke="#b9bde2"></path><path d="M1037.7 847.2L993.7 923.5L1197.3 959.5Z" fill="#919ae7" stroke="#919ae7"></path><path d="M1349 288.7L1169.3 265.7L1299 383.1Z" fill="#969ee7" stroke="#969ee7"></path><path d="M908 373.1L863 506.5L1022.7 441.1Z" fill="#acb1e4" stroke="#acb1e4"></path><path d="M1022.7 441.1L863 506.5L995.7 578.5Z" fill="#a3a9e5" stroke="#a3a9e5"></path><path d="M1638.3 974.5L1447.7 843.2L1434.7 924.5Z" fill="#a7ade4" stroke="#a7ade4"></path><path d="M1638.3 974.5L1650.3 803.2L1447.7 843.2Z" fill="#8d96e8" stroke="#8d96e8"></path><path d="M1782 705.8L1752 516.5L1626.3 576.5Z" fill="#b5b9e3" stroke="#b5b9e3"></path><path d="M1752 516.5L1643.3 444.1L1626.3 576.5Z" fill="#acb1e4" stroke="#acb1e4"></path><path d="M1626.3 576.5L1643.3 444.1L1455.7 529.5Z" fill="#9aa1e6" stroke="#9aa1e6"></path><path d="M760.3 673.8L847 797.2L892 666.8Z" fill="#919ae7" stroke="#919ae7"></path><path d="M892 666.8L847 797.2L1037.7 847.2Z" fill="#a3a9e5" stroke="#a3a9e5"></path><path d="M1008.7 236.7L908 373.1L1022.7 441.1Z" fill="#a7ade4" stroke="#a7ade4"></path><path d="M1574.3 267.7L1454.7 246.7L1439.7 439.1Z" fill="#919ae7" stroke="#919ae7"></path><path d="M1349 288.7L1324 155.4L1169.3 265.7Z" fill="#a3a9e5" stroke="#a3a9e5"></path><path d="M1060.7 1120.9L1184.3 1085.9L1197.3 959.5Z" fill="#a7ade4" stroke="#a7ade4"></path><path d="M1197.3 959.5L1184.3 1085.9L1351 975.5Z" fill="#b5b9e3" stroke="#b5b9e3"></path><path d="M1351 975.5L1484.7 1124.9L1434.7 924.5Z" fill="#a7ade4" stroke="#a7ade4"></path><path d="M847 797.2L914 932.5L1037.7 847.2Z" fill="#a3a9e5" stroke="#a3a9e5"></path><path d="M993.7 923.5L1060.7 1120.9L1197.3 959.5Z" fill="#a3a9e5" stroke="#a3a9e5"></path><path d="M1017.7 152.4L1008.7 236.7L1169.3 265.7Z" fill="#919ae7" stroke="#919ae7"></path><path d="M1169.3 265.7L1008.7 236.7L1022.7 441.1Z" fill="#a3a9e5" stroke="#a3a9e5"></path><path d="M1184.3 1085.9L1322 1119.9L1351 975.5Z" fill="#b0b5e3" stroke="#b0b5e3"></path><path d="M1643.3 444.1L1574.3 267.7L1439.7 439.1Z" fill="#919ae7" stroke="#919ae7"></path><path d="M1495.7 138.4L1324 155.4L1454.7 246.7Z" fill="#a3a9e5" stroke="#a3a9e5"></path><path d="M1454.7 246.7L1324 155.4L1349 288.7Z" fill="#b5b9e3" stroke="#b5b9e3"></path><path d="M863 506.5L760.3 673.8L892 666.8Z" fill="#a3a9e5" stroke="#a3a9e5"></path><path d="M847 797.2L749.3 966.5L914 932.5Z" fill="#acb1e4" stroke="#acb1e4"></path><path d="M721.3 529.5L760.3 673.8L863 506.5Z" fill="#b0b5e3" stroke="#b0b5e3"></path><path d="M1484.7 1124.9L1638.3 974.5L1434.7 924.5Z" fill="#8d96e8" stroke="#8d96e8"></path><path d="M1324 155.4L1179.3 144.4L1169.3 265.7Z" fill="#b9bde2" stroke="#b9bde2"></path><path d="M1782 705.8L1623.3 666.8L1650.3 803.2Z" fill="#a3a9e5" stroke="#a3a9e5"></path><path d="M1782 705.8L1626.3 576.5L1623.3 666.8Z" fill="#9aa1e6" stroke="#9aa1e6"></path><path d="M1643.3 444.1L1745 403.1L1574.3 267.7Z" fill="#9aa1e6" stroke="#9aa1e6"></path><path d="M914 932.5L1060.7 1120.9L993.7 923.5Z" fill="#b5b9e3" stroke="#b5b9e3"></path><path d="M1171.3 1238.3L1328 1207.3L1322 1119.9Z" fill="#b0b5e3" stroke="#b0b5e3"></path><path d="M1778 821.2L1782 705.8L1650.3 803.2Z" fill="#b9bde2" stroke="#b9bde2"></path><path d="M1440.7 1192.3L1484.7 1124.9L1322 1119.9Z" fill="#a7ade4" stroke="#a7ade4"></path><path d="M1322 1119.9L1484.7 1124.9L1351 975.5Z" fill="#a3a9e5" stroke="#a3a9e5"></path><path d="M760.3 673.8L750.3 810.2L847 797.2Z" fill="#acb1e4" stroke="#acb1e4"></path><path d="M914 932.5L845 1083.9L1060.7 1120.9Z" fill="#b5b9e3" stroke="#b5b9e3"></path><path d="M1752 516.5L1745 403.1L1643.3 444.1Z" fill="#b0b5e3" stroke="#b0b5e3"></path><path d="M1780 255.7L1745 403.1L1902.7 414.1Z" fill="#919ae7" stroke="#919ae7"></path><path d="M712.3 384.1L863 506.5L908 373.1Z" fill="#b0b5e3" stroke="#b0b5e3"></path><path d="M712.3 384.1L721.3 529.5L863 506.5Z" fill="#9aa1e6" stroke="#9aa1e6"></path><path d="M760.3 673.8L616.7 677.8L750.3 810.2Z" fill="#acb1e4" stroke="#acb1e4"></path><path d="M1179.3 144.4L1017.7 152.4L1169.3 265.7Z" fill="#9aa1e6" stroke="#9aa1e6"></path><path d="M1008.7 236.7L851 242.7L908 373.1Z" fill="#8d96e8" stroke="#8d96e8"></path><path d="M1638.3 974.5L1778 821.2L1650.3 803.2Z" fill="#b5b9e3" stroke="#b5b9e3"></path><path d="M1606.3 141.4L1495.7 138.4L1574.3 267.7Z" fill="#969ee7" stroke="#969ee7"></path><path d="M1574.3 267.7L1495.7 138.4L1454.7 246.7Z" fill="#9aa1e6" stroke="#9aa1e6"></path><path d="M1324 155.4L1209.3 0L1179.3 144.4Z" fill="#a7ade4" stroke="#a7ade4"></path><path d="M1171.3 1238.3L1322 1119.9L1184.3 1085.9Z" fill="#8d96e8" stroke="#8d96e8"></path><path d="M1017.7 152.4L851 242.7L1008.7 236.7Z" fill="#a3a9e5" stroke="#a3a9e5"></path><path d="M1576.3 1253.3L1581.3 1115.9L1484.7 1124.9Z" fill="#8d96e8" stroke="#8d96e8"></path><path d="M1484.7 1124.9L1581.3 1115.9L1638.3 974.5Z" fill="#b0b5e3" stroke="#b0b5e3"></path><path d="M1638.3 974.5L1774 976.5L1778 821.2Z" fill="#a7ade4" stroke="#a7ade4"></path><path d="M1328 1207.3L1440.7 1192.3L1322 1119.9Z" fill="#a7ade4" stroke="#a7ade4"></path><path d="M1060.7 1120.9L1171.3 1238.3L1184.3 1085.9Z" fill="#8d96e8" stroke="#8d96e8"></path><path d="M1445.7 1348.6L1576.3 1253.3L1440.7 1192.3Z" fill="#b0b5e3" stroke="#b0b5e3"></path><path d="M988.7 1235.3L1171.3 1238.3L1060.7 1120.9Z" fill="#a3a9e5" stroke="#a3a9e5"></path><path d="M587.7 942.5L749.3 966.5L750.3 810.2Z" fill="#919ae7" stroke="#919ae7"></path><path d="M750.3 810.2L749.3 966.5L847 797.2Z" fill="#8d96e8" stroke="#8d96e8"></path><path d="M749.3 966.5L845 1083.9L914 932.5Z" fill="#b0b5e3" stroke="#b0b5e3"></path><path d="M754.3 271.7L712.3 384.1L908 373.1Z" fill="#b0b5e3" stroke="#b0b5e3"></path><path d="M1727 172.4L1606.3 141.4L1574.3 267.7Z" fill="#a3a9e5" stroke="#a3a9e5"></path><path d="M1796 1082.9L1774 976.5L1638.3 974.5Z" fill="#b9bde2" stroke="#b9bde2"></path><path d="M1778 821.2L1872.7 827.2L1782 705.8Z" fill="#b5b9e3" stroke="#b5b9e3"></path><path d="M757.3 106.4L754.3 271.7L851 242.7Z" fill="#8d96e8" stroke="#8d96e8"></path><path d="M851 242.7L754.3 271.7L908 373.1Z" fill="#b9bde2" stroke="#b9bde2"></path><path d="M592.7 554.5L616.7 677.8L721.3 529.5Z" fill="#b0b5e3" stroke="#b0b5e3"></path><path d="M721.3 529.5L616.7 677.8L760.3 673.8Z" fill="#b0b5e3" stroke="#b0b5e3"></path><path d="M1774 976.5L1872.7 827.2L1778 821.2Z" fill="#8d96e8" stroke="#8d96e8"></path><path d="M1782 705.8L1914.7 532.5L1752 516.5Z" fill="#b5b9e3" stroke="#b5b9e3"></path><path d="M1341 0L1209.3 0L1324 155.4Z" fill="#b0b5e3" stroke="#b0b5e3"></path><path d="M1179.3 144.4L1006.7 0L1017.7 152.4Z" fill="#b5b9e3" stroke="#b5b9e3"></path><path d="M1017.7 152.4L849 120.4L851 242.7Z" fill="#a7ade4" stroke="#a7ade4"></path><path d="M1341 0L1324 155.4L1429.7 0Z" fill="#a7ade4" stroke="#a7ade4"></path><path d="M845 1083.9L988.7 1235.3L1060.7 1120.9Z" fill="#b0b5e3" stroke="#b0b5e3"></path><path d="M1429.7 0L1324 155.4L1495.7 138.4Z" fill="#acb1e4" stroke="#acb1e4"></path><path d="M1902.7 414.1L1745 403.1L1752 516.5Z" fill="#9fa5e6" stroke="#9fa5e6"></path><path d="M1745 403.1L1780 255.7L1574.3 267.7Z" fill="#9aa1e6" stroke="#9aa1e6"></path><path d="M904 0L849 120.4L1017.7 152.4Z" fill="#acb1e4" stroke="#acb1e4"></path><path d="M597.7 268.7L712.3 384.1L754.3 271.7Z" fill="#9aa1e6" stroke="#9aa1e6"></path><path d="M597.7 268.7L619.7 447.1L712.3 384.1Z" fill="#919ae7" stroke="#919ae7"></path><path d="M712.3 384.1L619.7 447.1L721.3 529.5Z" fill="#acb1e4" stroke="#acb1e4"></path><path d="M1780 255.7L1727 172.4L1574.3 267.7Z" fill="#a7ade4" stroke="#a7ade4"></path><path d="M1622.3 0L1429.7 0L1495.7 138.4Z" fill="#acb1e4" stroke="#acb1e4"></path><path d="M1622.3 0L1495.7 138.4L1606.3 141.4Z" fill="#b9bde2" stroke="#b9bde2"></path><path d="M1936.7 717.8L1914.7 532.5L1782 705.8Z" fill="#a7ade4" stroke="#a7ade4"></path><path d="M619.7 447.1L592.7 554.5L721.3 529.5Z" fill="#acb1e4" stroke="#acb1e4"></path><path d="M1872.7 827.2L1936.7 717.8L1782 705.8Z" fill="#a3a9e5" stroke="#a3a9e5"></path><path d="M1909.7 244.7L1902.7 414.1L2021.3 387.1Z" fill="#9aa1e6" stroke="#9aa1e6"></path><path d="M1914.7 532.5L1902.7 414.1L1752 516.5Z" fill="#8d96e8" stroke="#8d96e8"></path><path d="M1780 255.7L1872.7 103.4L1727 172.4Z" fill="#9fa5e6" stroke="#9fa5e6"></path><path d="M1440.7 1192.3L1576.3 1253.3L1484.7 1124.9Z" fill="#b9bde2" stroke="#b9bde2"></path><path d="M1581.3 1115.9L1796 1082.9L1638.3 974.5Z" fill="#969ee7" stroke="#969ee7"></path><path d="M1445.7 1348.6L1440.7 1192.3L1328 1207.3Z" fill="#b5b9e3" stroke="#b5b9e3"></path><path d="M1354 1380.6L1328 1207.3L1171.3 1238.3Z" fill="#8d96e8" stroke="#8d96e8"></path><path d="M749.3 966.5L713.3 1068.9L845 1083.9Z" fill="#9aa1e6" stroke="#9aa1e6"></path><path d="M845 1083.9L858 1220.3L988.7 1235.3Z" fill="#9aa1e6" stroke="#9aa1e6"></path><path d="M587.7 942.5L713.3 1068.9L749.3 966.5Z" fill="#9aa1e6" stroke="#9aa1e6"></path><path d="M1209.3 0L1006.7 0L1179.3 144.4Z" fill="#a3a9e5" stroke="#a3a9e5"></path><path d="M1741 1191.3L1796 1082.9L1581.3 1115.9Z" fill="#9aa1e6" stroke="#9aa1e6"></path><path d="M1774 976.5L1941.7 919.5L1872.7 827.2Z" fill="#b9bde2" stroke="#b9bde2"></path><path d="M1872.7 827.2L2022.3 806.2L1936.7 717.8Z" fill="#b5b9e3" stroke="#b5b9e3"></path><path d="M706.3 1207.3L858 1220.3L845 1083.9Z" fill="#acb1e4" stroke="#acb1e4"></path><path d="M474 928.5L581.7 836.2L405 821.2Z" fill="#b9bde2" stroke="#b9bde2"></path><path d="M616.7 677.8L581.7 836.2L750.3 810.2Z" fill="#9aa1e6" stroke="#9aa1e6"></path><path d="M1020.7 1381.6L1139.3 1352.6L988.7 1235.3Z" fill="#9aa1e6" stroke="#9aa1e6"></path><path d="M988.7 1235.3L1139.3 1352.6L1171.3 1238.3Z" fill="#a3a9e5" stroke="#a3a9e5"></path><path d="M1354 1380.6L1445.7 1348.6L1328 1207.3Z" fill="#919ae7" stroke="#919ae7"></path><path d="M1576.3 1253.3L1741 1191.3L1581.3 1115.9Z" fill="#8d96e8" stroke="#8d96e8"></path><path d="M1648.3 1355.6L1741 1191.3L1576.3 1253.3Z" fill="#a7ade4" stroke="#a7ade4"></path><path d="M581.7 836.2L587.7 942.5L750.3 810.2Z" fill="#acb1e4" stroke="#acb1e4"></path><path d="M713.3 1068.9L706.3 1207.3L845 1083.9Z" fill="#919ae7" stroke="#919ae7"></path><path d="M904 0L757.3 106.4L849 120.4Z" fill="#b0b5e3" stroke="#b0b5e3"></path><path d="M849 120.4L757.3 106.4L851 242.7Z" fill="#acb1e4" stroke="#acb1e4"></path><path d="M1006.7 0L904 0L1017.7 152.4Z" fill="#acb1e4" stroke="#acb1e4"></path><path d="M1928.7 1101.9L1774 976.5L1796 1082.9Z" fill="#b5b9e3" stroke="#b5b9e3"></path><path d="M1928.7 1101.9L1941.7 919.5L1774 976.5Z" fill="#b5b9e3" stroke="#b5b9e3"></path><path d="M1727 172.4L1622.3 0L1606.3 141.4Z" fill="#969ee7" stroke="#969ee7"></path><path d="M1787 0L1622.3 0L1727 172.4Z" fill="#8d96e8" stroke="#8d96e8"></path><path d="M1139.3 1352.6L1354 1380.6L1171.3 1238.3Z" fill="#969ee7" stroke="#969ee7"></path><path d="M757.3 106.4L597.7 268.7L754.3 271.7Z" fill="#9aa1e6" stroke="#9aa1e6"></path><path d="M619.7 447.1L425 527.5L592.7 554.5Z" fill="#9aa1e6" stroke="#9aa1e6"></path><path d="M412 712.8L581.7 836.2L616.7 677.8Z" fill="#acb1e4" stroke="#acb1e4"></path><path d="M2021.3 387.1L1902.7 414.1L1914.7 532.5Z" fill="#a7ade4" stroke="#a7ade4"></path><path d="M1902.7 414.1L1909.7 244.7L1780 255.7Z" fill="#969ee7" stroke="#969ee7"></path><path d="M2022.3 806.2L2026.3 660.8L1936.7 717.8Z" fill="#acb1e4" stroke="#acb1e4"></path><path d="M1936.7 717.8L2026.3 660.8L1914.7 532.5Z" fill="#b9bde2" stroke="#b9bde2"></path><path d="M850 1356.6L1020.7 1381.6L988.7 1235.3Z" fill="#8d96e8" stroke="#8d96e8"></path><path d="M1139.3 1352.6L1320 1500L1354 1380.6Z" fill="#969ee7" stroke="#969ee7"></path><path d="M1941.7 919.5L2022.3 806.2L1872.7 827.2Z" fill="#8d96e8" stroke="#8d96e8"></path><path d="M620.7 1206.3L706.3 1207.3L713.3 1068.9Z" fill="#9fa5e6" stroke="#9fa5e6"></path><path d="M858 1220.3L850 1356.6L988.7 1235.3Z" fill="#919ae7" stroke="#919ae7"></path><path d="M2085.3 582.5L2021.3 387.1L1914.7 532.5Z" fill="#b5b9e3" stroke="#b5b9e3"></path><path d="M1503.7 1500L1648.3 1355.6L1445.7 1348.6Z" fill="#a7ade4" stroke="#a7ade4"></path><path d="M1445.7 1348.6L1648.3 1355.6L1576.3 1253.3Z" fill="#8d96e8" stroke="#8d96e8"></path><path d="M1938.7 1191.3L1928.7 1101.9L1796 1082.9Z" fill="#919ae7" stroke="#919ae7"></path><path d="M1941.7 919.5L2057.3 937.5L2022.3 806.2Z" fill="#b5b9e3" stroke="#b5b9e3"></path><path d="M1938.7 1191.3L1796 1082.9L1741 1191.3Z" fill="#8d96e8" stroke="#8d96e8"></path><path d="M717.3 1326.6L850 1356.6L858 1220.3Z" fill="#9aa1e6" stroke="#9aa1e6"></path><path d="M2043.3 162.4L1872.7 103.4L1909.7 244.7Z" fill="#919ae7" stroke="#919ae7"></path><path d="M1909.7 244.7L1872.7 103.4L1780 255.7Z" fill="#a7ade4" stroke="#a7ade4"></path><path d="M2026.3 660.8L2085.3 582.5L1914.7 532.5Z" fill="#acb1e4" stroke="#acb1e4"></path><path d="M2200 675.8L2085.3 582.5L2026.3 660.8Z" fill="#919ae7" stroke="#919ae7"></path><path d="M412 712.8L616.7 677.8L592.7 554.5Z" fill="#b0b5e3" stroke="#b0b5e3"></path><path d="M581.7 836.2L474 928.5L587.7 942.5Z" fill="#b0b5e3" stroke="#b0b5e3"></path><path d="M587.7 942.5L563.7 1112.9L713.3 1068.9Z" fill="#a3a9e5" stroke="#a3a9e5"></path><path d="M1872.7 103.4L1787 0L1727 172.4Z" fill="#8d96e8" stroke="#8d96e8"></path><path d="M474 928.5L563.7 1112.9L587.7 942.5Z" fill="#919ae7" stroke="#919ae7"></path><path d="M706.3 1207.3L717.3 1326.6L858 1220.3Z" fill="#9fa5e6" stroke="#9fa5e6"></path><path d="M454 388.1L425 527.5L619.7 447.1Z" fill="#acb1e4" stroke="#acb1e4"></path><path d="M597.7 268.7L454 388.1L619.7 447.1Z" fill="#919ae7" stroke="#919ae7"></path><path d="M445 265.7L454 388.1L597.7 268.7Z" fill="#8d96e8" stroke="#8d96e8"></path><path d="M425 527.5L412 712.8L592.7 554.5Z" fill="#b0b5e3" stroke="#b0b5e3"></path><path d="M563.7 1112.9L620.7 1206.3L713.3 1068.9Z" fill="#b0b5e3" stroke="#b0b5e3"></path><path d="M904 0L703.3 0L757.3 106.4Z" fill="#b9bde2" stroke="#b9bde2"></path><path d="M757.3 106.4L592.7 105.4L597.7 268.7Z" fill="#a3a9e5" stroke="#a3a9e5"></path><path d="M2064.3 1061.9L2057.3 937.5L1941.7 919.5Z" fill="#8d96e8" stroke="#8d96e8"></path><path d="M2022.3 806.2L2200 675.8L2026.3 660.8Z" fill="#a3a9e5" stroke="#a3a9e5"></path><path d="M2021.3 387.1L2035.3 294.7L1909.7 244.7Z" fill="#b9bde2" stroke="#b9bde2"></path><path d="M1872.7 103.4L1877.7 0L1787 0Z" fill="#9aa1e6" stroke="#9aa1e6"></path><path d="M2200 396.1L2035.3 294.7L2021.3 387.1Z" fill="#9aa1e6" stroke="#9aa1e6"></path><path d="M703.3 0L592.7 105.4L757.3 106.4Z" fill="#919ae7" stroke="#919ae7"></path><path d="M1150.3 1500L1320 1500L1139.3 1352.6Z" fill="#8d96e8" stroke="#8d96e8"></path><path d="M1354 1380.6L1503.7 1500L1445.7 1348.6Z" fill="#8d96e8" stroke="#8d96e8"></path><path d="M1150.3 1500L1139.3 1352.6L1052.7 1500Z" fill="#acb1e4" stroke="#acb1e4"></path><path d="M1052.7 1500L1139.3 1352.6L1020.7 1381.6Z" fill="#9aa1e6" stroke="#9aa1e6"></path><path d="M620.7 1206.3L717.3 1326.6L706.3 1207.3Z" fill="#b9bde2" stroke="#b9bde2"></path><path d="M869 1500L1052.7 1500L1020.7 1381.6Z" fill="#a7ade4" stroke="#a7ade4"></path><path d="M412 712.8L405 821.2L581.7 836.2Z" fill="#919ae7" stroke="#919ae7"></path><path d="M474 928.5L464 1108.9L563.7 1112.9Z" fill="#919ae7" stroke="#919ae7"></path><path d="M1793 1393.6L1938.7 1191.3L1741 1191.3Z" fill="#b0b5e3" stroke="#b0b5e3"></path><path d="M1928.7 1101.9L2064.3 1061.9L1941.7 919.5Z" fill="#9fa5e6" stroke="#9fa5e6"></path><path d="M869 1500L1020.7 1381.6L850 1356.6Z" fill="#8d96e8" stroke="#8d96e8"></path><path d="M1320 1500L1503.7 1500L1354 1380.6Z" fill="#b0b5e3" stroke="#b0b5e3"></path><path d="M1648.3 1355.6L1793 1393.6L1741 1191.3Z" fill="#acb1e4" stroke="#acb1e4"></path><path d="M592.7 105.4L445 265.7L597.7 268.7Z" fill="#b5b9e3" stroke="#b5b9e3"></path><path d="M261.3 538.5L313.3 671.8L425 527.5Z" fill="#919ae7" stroke="#919ae7"></path><path d="M2038.3 0L1877.7 0L1872.7 103.4Z" fill="#8d96e8" stroke="#8d96e8"></path><path d="M2016.3 1223.3L2064.3 1061.9L1928.7 1101.9Z" fill="#acb1e4" stroke="#acb1e4"></path><path d="M2200 854.2L2200 675.8L2022.3 806.2Z" fill="#9fa5e6" stroke="#9fa5e6"></path><path d="M620.7 1206.3L571.7 1325.6L717.3 1326.6Z" fill="#8d96e8" stroke="#8d96e8"></path><path d="M563.7 1112.9L442 1225.3L620.7 1206.3Z" fill="#acb1e4" stroke="#acb1e4"></path><path d="M292.3 941.5L464 1108.9L474 928.5Z" fill="#9fa5e6" stroke="#9fa5e6"></path><path d="M1725 1500L1793 1393.6L1648.3 1355.6Z" fill="#969ee7" stroke="#969ee7"></path><path d="M1938.7 1191.3L2016.3 1223.3L1928.7 1101.9Z" fill="#969ee7" stroke="#969ee7"></path><path d="M2200 272.7L2043.3 162.4L2035.3 294.7Z" fill="#9aa1e6" stroke="#9aa1e6"></path><path d="M2035.3 294.7L2043.3 162.4L1909.7 244.7Z" fill="#b9bde2" stroke="#b9bde2"></path><path d="M1503.7 1500L1620.3 1500L1648.3 1355.6Z" fill="#b0b5e3" stroke="#b0b5e3"></path><path d="M703.3 0L576.7 0L592.7 105.4Z" fill="#a7ade4" stroke="#a7ade4"></path><path d="M592.7 105.4L429 127.4L445 265.7Z" fill="#a3a9e5" stroke="#a3a9e5"></path><path d="M763.3 1500L869 1500L850 1356.6Z" fill="#b9bde2" stroke="#b9bde2"></path><path d="M763.3 1500L850 1356.6L717.3 1326.6Z" fill="#b5b9e3" stroke="#b5b9e3"></path><path d="M412 712.8L284.3 803.2L405 821.2Z" fill="#9aa1e6" stroke="#9aa1e6"></path><path d="M405 821.2L292.3 941.5L474 928.5Z" fill="#acb1e4" stroke="#acb1e4"></path><path d="M425 527.5L313.3 671.8L412 712.8Z" fill="#a7ade4" stroke="#a7ade4"></path><path d="M288.3 404.1L425 527.5L454 388.1Z" fill="#9aa1e6" stroke="#9aa1e6"></path><path d="M2200 854.2L2022.3 806.2L2057.3 937.5Z" fill="#9fa5e6" stroke="#9fa5e6"></path><path d="M2085.3 582.5L2200 515.5L2021.3 387.1Z" fill="#b5b9e3" stroke="#b5b9e3"></path><path d="M2200 675.8L2200 515.5L2085.3 582.5Z" fill="#a7ade4" stroke="#a7ade4"></path><path d="M1923.7 1391.6L2016.3 1223.3L1938.7 1191.3Z" fill="#919ae7" stroke="#919ae7"></path><path d="M2200 915.5L2200 854.2L2057.3 937.5Z" fill="#b9bde2" stroke="#b9bde2"></path><path d="M442 1225.3L571.7 1325.6L620.7 1206.3Z" fill="#b0b5e3" stroke="#b0b5e3"></path><path d="M2200 915.5L2057.3 937.5L2064.3 1061.9Z" fill="#acb1e4" stroke="#acb1e4"></path><path d="M1620.3 1500L1725 1500L1648.3 1355.6Z" fill="#a3a9e5" stroke="#a3a9e5"></path><path d="M1793 1393.6L1923.7 1391.6L1938.7 1191.3Z" fill="#a7ade4" stroke="#a7ade4"></path><path d="M576.7 0L429 127.4L592.7 105.4Z" fill="#b0b5e3" stroke="#b0b5e3"></path><path d="M319.3 251.7L288.3 404.1L454 388.1Z" fill="#b0b5e3" stroke="#b0b5e3"></path><path d="M2200 515.5L2200 396.1L2021.3 387.1Z" fill="#b0b5e3" stroke="#b0b5e3"></path><path d="M2200 1081.9L2200 915.5L2064.3 1061.9Z" fill="#9fa5e6" stroke="#9fa5e6"></path><path d="M176.7 707.8L284.3 803.2L313.3 671.8Z" fill="#b0b5e3" stroke="#b0b5e3"></path><path d="M313.3 671.8L284.3 803.2L412 712.8Z" fill="#9aa1e6" stroke="#9aa1e6"></path><path d="M464 1108.9L442 1225.3L563.7 1112.9Z" fill="#a3a9e5" stroke="#a3a9e5"></path><path d="M594.7 1500L763.3 1500L717.3 1326.6Z" fill="#9fa5e6" stroke="#9fa5e6"></path><path d="M319.3 251.7L454 388.1L445 265.7Z" fill="#acb1e4" stroke="#acb1e4"></path><path d="M304.3 1111.9L442 1225.3L464 1108.9Z" fill="#a3a9e5" stroke="#a3a9e5"></path><path d="M571.7 1325.6L594.7 1500L717.3 1326.6Z" fill="#b9bde2" stroke="#b9bde2"></path><path d="M288.3 404.1L261.3 538.5L425 527.5Z" fill="#8d96e8" stroke="#8d96e8"></path><path d="M1895.7 1500L1923.7 1391.6L1793 1393.6Z" fill="#8d96e8" stroke="#8d96e8"></path><path d="M2200 1189.3L2200 1081.9L2064.3 1061.9Z" fill="#8d96e8" stroke="#8d96e8"></path><path d="M181.7 798.2L292.3 941.5L284.3 803.2Z" fill="#a3a9e5" stroke="#a3a9e5"></path><path d="M284.3 803.2L292.3 941.5L405 821.2Z" fill="#a7ade4" stroke="#a7ade4"></path><path d="M2200 149.4L2038.3 0L2043.3 162.4Z" fill="#8d96e8" stroke="#8d96e8"></path><path d="M2043.3 162.4L2038.3 0L1872.7 103.4Z" fill="#acb1e4" stroke="#acb1e4"></path><path d="M2200 396.1L2200 272.7L2035.3 294.7Z" fill="#b5b9e3" stroke="#b5b9e3"></path><path d="M429 127.4L319.3 251.7L445 265.7Z" fill="#b0b5e3" stroke="#b0b5e3"></path><path d="M2200 1189.3L2064.3 1061.9L2016.3 1223.3Z" fill="#acb1e4" stroke="#acb1e4"></path><path d="M292.3 941.5L304.3 1111.9L464 1108.9Z" fill="#acb1e4" stroke="#acb1e4"></path><path d="M442 1225.3L458 1368.6L571.7 1325.6Z" fill="#b5b9e3" stroke="#b5b9e3"></path><path d="M175.7 1081.9L304.3 1111.9L292.3 941.5Z" fill="#b9bde2" stroke="#b9bde2"></path><path d="M576.7 0L409 0L429 127.4Z" fill="#b9bde2" stroke="#b9bde2"></path><path d="M429 127.4L300.3 162.4L319.3 251.7Z" fill="#919ae7" stroke="#919ae7"></path><path d="M2200 272.7L2200 149.4L2043.3 162.4Z" fill="#a7ade4" stroke="#a7ade4"></path><path d="M1725 1500L1895.7 1500L1793 1393.6Z" fill="#acb1e4" stroke="#acb1e4"></path><path d="M2200 1344.6L2200 1189.3L2016.3 1223.3Z" fill="#b9bde2" stroke="#b9bde2"></path><path d="M291.3 0L300.3 162.4L429 127.4Z" fill="#b9bde2" stroke="#b9bde2"></path><path d="M158.7 275.7L138.7 434.1L288.3 404.1Z" fill="#b5b9e3" stroke="#b5b9e3"></path><path d="M176.7 534.5L176.7 707.8L261.3 538.5Z" fill="#b0b5e3" stroke="#b0b5e3"></path><path d="M307.3 1396.6L458 1368.6L442 1225.3Z" fill="#9fa5e6" stroke="#9fa5e6"></path><path d="M458 1368.6L594.7 1500L571.7 1325.6Z" fill="#b0b5e3" stroke="#b0b5e3"></path><path d="M176.7 534.5L261.3 538.5L288.3 404.1Z" fill="#8d96e8" stroke="#8d96e8"></path><path d="M261.3 538.5L176.7 707.8L313.3 671.8Z" fill="#a3a9e5" stroke="#a3a9e5"></path><path d="M138.7 434.1L176.7 534.5L288.3 404.1Z" fill="#9aa1e6" stroke="#9aa1e6"></path><path d="M176.7 707.8L181.7 798.2L284.3 803.2Z" fill="#b0b5e3" stroke="#b0b5e3"></path><path d="M2064.3 1398.6L2016.3 1223.3L1923.7 1391.6Z" fill="#a3a9e5" stroke="#a3a9e5"></path><path d="M2056.3 1500L2064.3 1398.6L1923.7 1391.6Z" fill="#b5b9e3" stroke="#b5b9e3"></path><path d="M304.3 1111.9L286.3 1228.3L442 1225.3Z" fill="#9fa5e6" stroke="#9fa5e6"></path><path d="M458 1368.6L470 1500L594.7 1500Z" fill="#b5b9e3" stroke="#b5b9e3"></path><path d="M183.7 1214.3L286.3 1228.3L304.3 1111.9Z" fill="#9fa5e6" stroke="#9fa5e6"></path><path d="M158.7 275.7L288.3 404.1L319.3 251.7Z" fill="#9fa5e6" stroke="#9fa5e6"></path><path d="M0 570.5L0 695.8L176.7 707.8Z" fill="#acb1e4" stroke="#acb1e4"></path><path d="M0 794.2L127.7 979.5L181.7 798.2Z" fill="#919ae7" stroke="#919ae7"></path><path d="M2200 149.4L2200 0L2038.3 0Z" fill="#b9bde2" stroke="#b9bde2"></path><path d="M300.3 162.4L158.7 275.7L319.3 251.7Z" fill="#969ee7" stroke="#969ee7"></path><path d="M134.7 158.4L158.7 275.7L300.3 162.4Z" fill="#969ee7" stroke="#969ee7"></path><path d="M409 0L291.3 0L429 127.4Z" fill="#9aa1e6" stroke="#9aa1e6"></path><path d="M307.3 1396.6L470 1500L458 1368.6Z" fill="#9aa1e6" stroke="#9aa1e6"></path><path d="M127.7 979.5L175.7 1081.9L292.3 941.5Z" fill="#8d96e8" stroke="#8d96e8"></path><path d="M286.3 1228.3L307.3 1396.6L442 1225.3Z" fill="#a3a9e5" stroke="#a3a9e5"></path><path d="M127.7 979.5L292.3 941.5L181.7 798.2Z" fill="#9fa5e6" stroke="#9fa5e6"></path><path d="M1895.7 1500L2056.3 1500L1923.7 1391.6Z" fill="#b5b9e3" stroke="#b5b9e3"></path><path d="M2064.3 1398.6L2200 1344.6L2016.3 1223.3Z" fill="#b0b5e3" stroke="#b0b5e3"></path><path d="M2200 1500L2200 1344.6L2064.3 1398.6Z" fill="#acb1e4" stroke="#acb1e4"></path><path d="M0 794.2L181.7 798.2L176.7 707.8Z" fill="#9fa5e6" stroke="#9fa5e6"></path><path d="M183.7 1214.3L304.3 1111.9L175.7 1081.9Z" fill="#8d96e8" stroke="#8d96e8"></path><path d="M115.7 1337.6L307.3 1396.6L286.3 1228.3Z" fill="#acb1e4" stroke="#acb1e4"></path><path d="M0 1100.9L183.7 1214.3L175.7 1081.9Z" fill="#969ee7" stroke="#969ee7"></path><path d="M174.7 0L134.7 158.4L300.3 162.4Z" fill="#b0b5e3" stroke="#b0b5e3"></path><path d="M0 401.1L0 570.5L138.7 434.1Z" fill="#8d96e8" stroke="#8d96e8"></path><path d="M0 570.5L176.7 707.8L176.7 534.5Z" fill="#acb1e4" stroke="#acb1e4"></path><path d="M0 570.5L176.7 534.5L138.7 434.1Z" fill="#a7ade4" stroke="#a7ade4"></path><path d="M127.7 979.5L0 1100.9L175.7 1081.9Z" fill="#9aa1e6" stroke="#9aa1e6"></path><path d="M0 401.1L138.7 434.1L158.7 275.7Z" fill="#a7ade4" stroke="#a7ade4"></path><path d="M291.3 0L174.7 0L300.3 162.4Z" fill="#9fa5e6" stroke="#9fa5e6"></path><path d="M0 257.7L0 401.1L158.7 275.7Z" fill="#b9bde2" stroke="#b9bde2"></path><path d="M0 695.8L0 794.2L176.7 707.8Z" fill="#b5b9e3" stroke="#b5b9e3"></path><path d="M2056.3 1500L2200 1500L2064.3 1398.6Z" fill="#919ae7" stroke="#919ae7"></path><path d="M0 257.7L158.7 275.7L134.7 158.4Z" fill="#9fa5e6" stroke="#9fa5e6"></path><path d="M115.7 1337.6L286.3 1228.3L183.7 1214.3Z" fill="#b5b9e3" stroke="#b5b9e3"></path><path d="M122.7 1500L293.3 1500L307.3 1396.6Z" fill="#b0b5e3" stroke="#b0b5e3"></path><path d="M307.3 1396.6L293.3 1500L470 1500Z" fill="#b9bde2" stroke="#b9bde2"></path><path d="M0 794.2L0 975.5L127.7 979.5Z" fill="#b9bde2" stroke="#b9bde2"></path><path d="M0 108.4L0 257.7L134.7 158.4Z" fill="#acb1e4" stroke="#acb1e4"></path><path d="M0 1227.3L115.7 1337.6L183.7 1214.3Z" fill="#919ae7" stroke="#919ae7"></path><path d="M0 975.5L0 1100.9L127.7 979.5Z" fill="#a3a9e5" stroke="#a3a9e5"></path><path d="M174.7 0L0 108.4L134.7 158.4Z" fill="#8d96e8" stroke="#8d96e8"></path><path d="M0 1100.9L0 1227.3L183.7 1214.3Z" fill="#919ae7" stroke="#919ae7"></path><path d="M174.7 0L0 0L0 108.4Z" fill="#b5b9e3" stroke="#b5b9e3"></path><path d="M0 1345.6L122.7 1500L115.7 1337.6Z" fill="#a3a9e5" stroke="#a3a9e5"></path><path d="M115.7 1337.6L122.7 1500L307.3 1396.6Z" fill="#acb1e4" stroke="#acb1e4"></path><path d="M0 1227.3L0 1345.6L115.7 1337.6Z" fill="#a7ade4" stroke="#a7ade4"></path><path d="M0 1345.6L0 1500L122.7 1500Z" fill="#acb1e4" stroke="#acb1e4"></path></g></svg>